# xmcd
#
# Track frame offsets:
# 150
# 26257
# 46663
# 60370
# 76945
# 91011
# 109900
# 123515
# 142330
# 154415
# 168077
# 183440
# 198803
# 210329
#
# Disc length: 3108 seconds
#
#
# Revision: 0
# Processed by: cddbd v1.5.1PL2 Copyright (c) Steve Scherf et al.
# Submitted via: FreeRIP 2.942 
#
DISCID=ab0c220e
DTITLE=Felipe and Falcão - 20 anos Ao Vivo - Felipe and Falcão - 20 anos Ao Vivo
DYEAR=2006
DGENRE=Sertaneja
TTITLE0=Pout-Pourri - Em Tempo de Avanço - Empreitada Perigosa - Vara de Marmelo
TTITLE1=Pra Sempre Seu Retrato
TTITLE2=Vou Mandar o Paulo Atras
TTITLE3=Deixa Eu Te Amar Por Favor
TTITLE4=Cadê Ela
TTITLE5=Herói Sem Medalha
TTITLE6=Da Briga
TTITLE7=Vai Por Ai
TTITLE8=O Tonto Não Tem Dono
TTITLE9=Grito de Amor
TTITLE10=Melhor Amiga Sua
TTITLE11=Hoje Não É Nosso Dia
TTITLE12=Comitiva dos Solteiros
TTITLE13=Que Pena
EXTD=
EXTT0=
EXTT1=
EXTT2=
EXTT3=
EXTT4=
EXTT5=
EXTT6=
EXTT7=
EXTT8=
EXTT9=
EXTT10=
EXTT11=
EXTT12=
EXTT13=
PLAYORDER=
